<svg width="134" height="26" viewBox="0 0 134 26" fill="none" xmlns="http://www.w3.org/2000/svg">
<path d="M0 0.000732422V25.999H5.99453V0.000732422H0Z" fill="white"/>
<path d="M27.921 0.000647455V13.7594C27.921 14.1758 27.9342 14.619 27.9579 15.0888C27.9815 15.5587 28.0159 16.0419 28.0634 16.541L15.8633 0.930019C15.7279 0.758679 15.5808 0.597204 15.423 0.446792C15.3031 0.33484 15.1671 0.242093 15.0195 0.171775C14.868 0.102945 14.707 0.057756 14.5421 0.0377364C14.3261 0.010753 14.1085 -0.00178481 13.8908 0.000204296H10.7523V25.9989H16.0052V12.0641C16.0052 11.6823 15.9946 11.2766 15.9708 10.8414C15.9469 10.4062 15.918 9.96323 15.8812 9.51217L27.9916 25.0005C28.2306 25.3332 28.5454 25.6024 28.9094 25.7853C29.2782 25.9373 29.6742 26.01 30.0723 25.9989H33.1737V0.000647455H27.921Z" fill="white"/>
<path d="M53.9402 4.64044V0.000732422H37.4045V25.999H43.3991V15.8818H52.1785V11.226H43.3999V4.64044H53.9402Z" fill="white"/>
<path d="M57.5717 25.999H63.5662V9.47738L57.5717 3.40967V25.999Z" fill="white"/>
<path d="M85.4953 0.000732422V13.7594C85.4953 14.1759 85.5059 14.6191 85.5297 15.0889C85.5536 15.5588 85.5875 16.042 85.635 16.5411L73.4376 0.930104C73.3008 0.760007 73.1537 0.598625 72.9973 0.446877C72.7541 0.218132 72.4445 0.0749092 72.1144 0.0384895C71.8984 0.0114996 71.6808 -0.00103818 71.4631 0.00095741H68.3246V25.999H73.5775V12.0642C73.5775 11.6824 73.5669 11.2767 73.5431 10.8415C73.5192 10.4063 73.4903 9.96331 73.4535 9.51226L85.5639 25.0006C85.8035 25.3327 86.1182 25.6018 86.4816 25.7854C86.8506 25.9374 87.2466 26.0101 87.6448 25.999H90.7462V0.000732422H85.4953Z" fill="white"/>
<path d="M95.5065 0.000732422V25.999H101.501V0.000732422H95.5065Z" fill="white"/>
<path d="M104.497 0.000732422V4.78453H111.723V25.999H117.682V4.78453H124.909V0.000732422H104.497Z" fill="white"/>
<path d="M127.906 0.000732422V25.999H133.9V0.000732422H127.906Z" fill="white"/>
<path d="M63.5663 0.000732422V6.07113L60.5677 3.03593L63.5663 0.000732422Z" fill="#D22635"/>
<path d="M63.5663 0.000732422L60.5677 3.03593L57.5698 0.000732422H63.5663Z" fill="#F8B133"/>
</svg>
